# xmcd
#
# Track frame offsets: 
#        150
#        16949
#        30313
#        46320
#        60346
#        76339
#        93387
#        114880
#        125476
#        146659
#        163853
#        182176
#        205380
#
# Disc length: 3032 seconds
#
# Revision: 2
# Processed by: cddbd v1.5.2PL0 Copyright (c) Steve Scherf et al.
# Submitted via: ExactAudioCopy v1.1
#
DISCID=a50bd60d
DTITLE=Xavier Naidoo - Bei meiner Seele
DYEAR=2013
DGENRE=Pop, Soul
TTITLE0=Bei meiner Seele (DJ Release Remix)
TTITLE1=Höchste Zeit
TTITLE2=Junge
TTITLE3=Autonarr
TTITLE4=Hört, hört
TTITLE5=Der letzte Blick
TTITLE6=Das Aufgebot
TTITLE7=Phrasen für dich
TTITLE8=So schön wie früher
TTITLE9=Stiller (Teilhaber)
TTITLE10=Woran kann ich den Menschen erkennen
TTITLE11=Xavier Naidoo featuring Moses Pelham - Deine Last
TTITLE12=Bei meiner Seele
EXTD=
EXTT0=
EXTT1=
EXTT2=
EXTT3=
EXTT4=
EXTT5=
EXTT6=
EXTT7=
EXTT8=
EXTT9=
EXTT10=
EXTT11=
EXTT12=
PLAYORDER=
